<svg version="1.1" viewBox="0.0 0.0 100.0 100.0" fill="none" stroke="none" stroke-linecap="square" stroke-miterlimit="10" xmlns:xlink="http://www.w3.org/1999/xlink" xmlns="http://www.w3.org/2000/svg"><clipPath id="p.0"><path d="m0 0l100.0 0l0 100.0l-100.0 0l0 -100.0z" clip-rule="nonzero"/></clipPath><g clip-path="url(#p.0)"><path fill="#000000" fill-opacity="0.0" d="m0 0l100.0 0l0 100.0l-100.0 0z" fill-rule="evenodd"/><path fill="#000000" fill-opacity="0.0" d="m26.48819 54.902885l0 0c0 -12.759079 10.526596 -23.10236 23.51181 -23.10236l0 0c6.2357216 0 12.216042 2.4339905 16.625359 6.7665253c4.4093246 4.332531 6.8864517 10.20871 6.8864517 16.335835l0 0c0 12.759087 -10.526596 23.102364 -23.51181 23.102364l0 0c-12.985214 0 -23.51181 -10.343277 -23.51181 -23.102364z" fill-rule="evenodd"/><path stroke="#93c47d" stroke-width="4.0" stroke-linejoin="round" stroke-linecap="butt" d="m26.48819 54.902885l0 0c0 -12.759079 10.526596 -23.10236 23.51181 -23.10236l0 0c6.2357216 0 12.216042 2.4339905 16.625359 6.7665253c4.4093246 4.332531 6.8864517 10.20871 6.8864517 16.335835l0 0c0 12.759087 -10.526596 23.102364 -23.51181 23.102364l0 0c-12.985214 0 -23.51181 -10.343277 -23.51181 -23.102364z" fill-rule="evenodd"/></g></svg>