<svg version="1.1" viewBox="0.0 0.0 960.0 720.0" fill="none" stroke="none" stroke-linecap="square" stroke-miterlimit="10" xmlns:xlink="http://www.w3.org/1999/xlink" xmlns="http://www.w3.org/2000/svg"><clipPath id="p.0"><path d="m0 0l960.0 0l0 720.0l-960.0 0l0 -720.0z" clip-rule="nonzero"/></clipPath><g clip-path="url(#p.0)"><path fill="#000000" fill-opacity="0.0" d="m0 0l960.0 0l0 720.0l-960.0 0z" fill-rule="evenodd"/><defs><radialGradient id="p.1" gradientUnits="userSpaceOnUse" gradientTransform="matrix(5.842238776060307 0.0 0.0 5.842238776060307 0.0 0.0)" spreadMethod="pad" cx="36.942027749021165" cy="8.619462043715965" fx="36.942027749021165" fy="8.619462043715965" r="5.842238903045654"><stop offset="0.0" stop-color="#d9ead3"/><stop offset="1.0" stop-color="#00c800"/></radialGradient></defs><path fill="url(#p.1)" d="m191.47769 50.356956l0 0c0 -13.2113495 10.900284 -23.92126 24.34645 -23.92126l0 0c6.4570923 0 12.649704 2.5202675 17.215546 7.0063744c4.565857 4.486107 7.1309204 10.570572 7.1309204 16.914886l0 0c0 13.211346 -10.900284 23.921257 -24.346466 23.921257l0 0c-13.446167 0 -24.34645 -10.709911 -24.34645 -23.921257z" fill-rule="evenodd"/><defs><radialGradient id="p.2" gradientUnits="userSpaceOnUse" gradientTransform="matrix(5.278893190443326 0.0 0.0 5.278893190443326 0.0 0.0)" spreadMethod="pad" cx="41.14315621284894" cy="9.413566694874973" fx="41.14315621284894" fy="9.413566694874973" r="5.278892993927002"><stop offset="0.0" stop-color="#ffffff"/><stop offset="1.0" stop-color="#63ff63"/></radialGradient></defs><path fill="url(#p.2)" d="m213.25705 43.38835l8.970718 -13.281189l-0.61302185 16.86987l6.321228 0.10175705l-5.0668488 3.4701233l14.143921 3.8271027l-15.732056 1.1573181l2.8806152 5.4462547l-6.1570435 -4.3804893l-7.064087 12.680168l0.27812195 -14.151741l-5.7944336 3.3123436l3.0960083 -4.9119873l-11.152573 -8.25642l12.245148 0.8791466l-0.8997803 -7.5547676z" fill-rule="evenodd"/></g></svg>