<?xml version="1.0" encoding="UTF-8"?><svg id="Layer_1" xmlns="http://www.w3.org/2000/svg" width="100" height="100" viewBox="0 0 100 100"><path d="M32.16,93.84l11.13-11.4c-3.96-.86-7.64-2.42-10.93-4.54l-.19,15.94Z"/><path d="M68.52,6.07l-11.13,11.4c3.96.86,7.64,2.42,10.93,4.55l.19-15.94Z"/><path d="M17.85,57.01l-11.4,11.12,15.94-.19c-2.12-3.29-3.69-6.98-4.54-10.93Z"/><path d="M82.82,42.91l11.4-11.13-15.94.19c2.12,3.29,3.69,6.98,4.55,10.93Z"/><path d="M22.4,31.97l-15.94-.19,11.4,11.13c.86-3.96,2.42-7.64,4.55-10.93Z"/><path d="M78.28,67.94l15.94.19-11.4-11.12c-.86,3.95-2.42,7.64-4.55,10.93Z"/><path d="M43.29,17.47l-11.12-11.4.19,15.94c3.29-2.12,6.98-3.69,10.93-4.54Z"/><path d="M57.39,82.44l11.13,11.4-.19-15.94c-3.29,2.12-6.98,3.69-10.93,4.54Z"/><path d="M23.03,68.9l-6.28,14.65,14.65-6.28c-3.26-2.27-6.1-5.11-8.37-8.37Z"/><path d="M77.65,31.02l6.28-14.65-14.65,6.28c3.26,2.27,6.1,5.11,8.37,8.37Z"/><path d="M17.09,49.96c0-2.02.21-4,.56-5.92l-14.81,5.92,14.81,5.92c-.35-1.92-.56-3.9-.56-5.92Z"/><path d="M97.84,49.96l-14.81-5.92c.35,1.93.56,3.9.56,5.92s-.21,4-.56,5.92l14.81-5.92Z"/><path d="M31.4,22.65l-14.65-6.28,6.28,14.65c2.27-3.26,5.1-6.1,8.37-8.37Z"/><path d="M69.28,77.27l14.65,6.28-6.28-14.65c-2.27,3.26-5.1,6.1-8.37,8.37Z"/><path d="M56.26,17.26l-5.92-14.81-5.92,14.81c1.93-.35,3.9-.56,5.92-.56s4,.21,5.92.56Z"/><path d="M44.41,82.65l5.92,14.81,5.92-14.81c-1.93.35-3.9.56-5.92.56s-3.99-.21-5.92-.56Z"/><path d="M50.34,80.9c-17.06,0-30.95-13.88-30.95-30.95s13.88-30.95,30.95-30.95,30.95,13.88,30.95,30.95-13.88,30.95-30.95,30.95ZM50.34,20.74c-16.11,0-29.22,13.11-29.22,29.22s13.11,29.22,29.22,29.22,29.22-13.11,29.22-29.22-13.11-29.22-29.22-29.22ZM50.34,68.38c-7.11,0-12.18-4.18-14.55-8.09-.55-.91-.46-2,.23-2.65.6-.56,1.46-.6,2.19-.09,7.82,5.46,16.43,5.46,24.25,0,.73-.51,1.59-.47,2.19.09.69.65.79,1.74.23,2.65h0c-2.37,3.91-7.44,8.09-14.55,8.09ZM45.93,49.91c-.36,0-.7-.14-.96-.41-1.51-1.59-3.39-2.4-5.6-2.4s-4.09.81-5.6,2.4c-.47.49-1.19.55-1.82.15-.63-.39-1.15-1.22-.88-1.98h0c1.91-5.25,4.93-8.26,8.29-8.26s6.38,3.01,8.29,8.26c.28.77-.25,1.59-.88,1.99-.28.17-.57.26-.86.26ZM32.7,48.26h0s0,0,0,0c0,0,0,0,0,0ZM54.74,49.91c-.28,0-.57-.09-.85-.26-.63-.39-1.16-1.22-.88-1.98,1.91-5.25,4.93-8.26,8.29-8.26s6.39,3.01,8.3,8.26c.27.77-.25,1.6-.88,1.99-.63.39-1.35.33-1.81-.15h0c-1.51-1.59-3.39-2.4-5.6-2.4s-4.09.81-5.6,2.4c-.26.27-.6.41-.96.41Z"/></svg>